<svg xmlns="http://www.w3.org/2000/svg" viewBox="0 0 632 224" width="632" height="224" role="img"><rect width="632" height="224" fill="#0f141b"/><text x="16" y="28" font-family="system-ui,sans-serif" font-size="16" font-weight="700" fill="#e8edf3">Hydrogen spin / field states</text><rect x="20" y="56" width="192" height="56" rx="8" fill="#161d27" stroke="#26313f"/><text x="30" y="80" font-family="system-ui,sans-serif" font-size="13" font-weight="700" fill="#6cb2ff">electron spin 1/2</text><text x="30" y="98" font-family="system-ui,sans-serif" font-size="10" fill="#9aa7b8">Zeeman splitting</text><rect x="220" y="56" width="192" height="56" rx="8" fill="#161d27" stroke="#26313f"/><text x="230" y="80" font-family="system-ui,sans-serif" font-size="13" font-weight="700" fill="#6cb2ff">proton I = 1/2</text><text x="230" y="98" font-family="system-ui,sans-serif" font-size="10" fill="#9aa7b8">hyperfine 1420 MHz</text><rect x="420" y="56" width="192" height="56" rx="8" fill="#161d27" stroke="#26313f"/><text x="430" y="80" font-family="system-ui,sans-serif" font-size="13" font-weight="700" fill="#6cb2ff">deuteron I = 1</text><text x="430" y="98" font-family="system-ui,sans-serif" font-size="10" fill="#9aa7b8">spin-1 effects</text><rect x="20" y="120" width="192" height="56" rx="8" fill="#161d27" stroke="#26313f"/><text x="30" y="144" font-family="system-ui,sans-serif" font-size="13" font-weight="700" fill="#6cb2ff">triton I = 1/2</text><text x="30" y="162" font-family="system-ui,sans-serif" font-size="10" fill="#9aa7b8">hyperfine</text><rect x="220" y="120" width="192" height="56" rx="8" fill="#161d27" stroke="#26313f"/><text x="230" y="144" font-family="system-ui,sans-serif" font-size="13" font-weight="700" fill="#6cb2ff">ortho-H2</text><text x="230" y="162" font-family="system-ui,sans-serif" font-size="10" fill="#9aa7b8">triplet nuclear spin</text><rect x="420" y="120" width="192" height="56" rx="8" fill="#161d27" stroke="#26313f"/><text x="430" y="144" font-family="system-ui,sans-serif" font-size="13" font-weight="700" fill="#6cb2ff">para-H2</text><text x="430" y="162" font-family="system-ui,sans-serif" font-size="10" fill="#9aa7b8">singlet nuclear spin</text><text x="16" y="214" font-family="system-ui,sans-serif" font-size="10" fill="#5c6b80">Not a permanent bar magnet.</text></svg>