<svg xmlns="http://www.w3.org/2000/svg" viewBox="0 0 560 506" width="560" height="506" role="img"><rect width="560" height="506" fill="#0f141b"/><text x="16" y="28" font-family="system-ui,sans-serif" font-size="16" font-weight="700" fill="#e8edf3">Be evidence + safety overlay</text><rect x="60" y="56" width="440" height="44" rx="8" fill="#161d27" stroke="#26313f"/><text x="280" y="83" font-family="system-ui,sans-serif" font-size="12" fill="#e8edf3" text-anchor="middle">NIST ASD → atomic/spectral</text><rect x="60" y="126" width="440" height="44" rx="8" fill="#161d27" stroke="#26313f"/><text x="280" y="153" font-family="system-ui,sans-serif" font-size="12" fill="#e8edf3" text-anchor="middle">NIST + NUBASE → nuclear</text><line x1="280" y1="100" x2="280" y2="126" stroke="#6cb2ff"/><polygon points="275,118 285,118 280,126" fill="#6cb2ff"/><rect x="60" y="196" width="440" height="44" rx="8" fill="#161d27" stroke="#26313f"/><text x="280" y="223" font-family="system-ui,sans-serif" font-size="12" fill="#e8edf3" text-anchor="middle">crystallography → HCP bulk</text><line x1="280" y1="170" x2="280" y2="196" stroke="#6cb2ff"/><polygon points="275,188 285,188 280,196" fill="#6cb2ff"/><rect x="60" y="266" width="440" height="44" rx="8" fill="#161d27" stroke="#26313f"/><text x="280" y="293" font-family="system-ui,sans-serif" font-size="12" fill="#e8edf3" text-anchor="middle">NIST BeO → ceramic data</text><line x1="280" y1="240" x2="280" y2="266" stroke="#6cb2ff"/><polygon points="275,258 285,258 280,266" fill="#6cb2ff"/><rect x="60" y="336" width="440" height="44" rx="8" fill="#161d27" stroke="#26313f"/><text x="280" y="363" font-family="system-ui,sans-serif" font-size="12" fill="#e8edf3" text-anchor="middle">IAEA/fusion → multiplier role</text><line x1="280" y1="310" x2="280" y2="336" stroke="#6cb2ff"/><polygon points="275,328 285,328 280,336" fill="#6cb2ff"/><rect x="60" y="406" width="440" height="44" rx="8" fill="#161d27" stroke="#26313f"/><text x="280" y="433" font-family="system-ui,sans-serif" font-size="12" fill="#e8edf3" text-anchor="middle">OSHA → exposure → CONTROL</text><line x1="280" y1="380" x2="280" y2="406" stroke="#6cb2ff"/><polygon points="275,398 285,398 280,406" fill="#6cb2ff"/><text x="16" y="496" font-family="system-ui,sans-serif" font-size="10" fill="#5c6b80">PROCESS → FORM → EXPOSURE → CONTROL.</text></svg>