<svg xmlns="http://www.w3.org/2000/svg" viewBox="0 0 580 366" width="580" height="366" role="img"><rect width="580" height="366" fill="#0f141b"/><text x="16" y="28" font-family="system-ui,sans-serif" font-size="16" font-weight="700" fill="#e8edf3">F− hopping transport</text><rect x="60" y="56" width="460" height="44" rx="8" fill="#161d27" stroke="#26313f"/><text x="290" y="83" font-family="system-ui,sans-serif" font-size="12" fill="#e8edf3" text-anchor="middle">F− at site</text><rect x="60" y="126" width="460" height="44" rx="8" fill="#161d27" stroke="#26313f"/><text x="290" y="153" font-family="system-ui,sans-serif" font-size="12" fill="#e8edf3" text-anchor="middle">vacancy/interstitial path</text><line x1="290" y1="100" x2="290" y2="126" stroke="#6cb2ff"/><polygon points="285,118 295,118 290,126" fill="#6cb2ff"/><rect x="60" y="196" width="460" height="44" rx="8" fill="#161d27" stroke="#26313f"/><text x="290" y="223" font-family="system-ui,sans-serif" font-size="12" fill="#e8edf3" text-anchor="middle">adjacent site</text><line x1="290" y1="170" x2="290" y2="196" stroke="#6cb2ff"/><polygon points="285,188 295,188 290,196" fill="#6cb2ff"/><rect x="60" y="266" width="460" height="44" rx="8" fill="#161d27" stroke="#26313f"/><text x="290" y="293" font-family="system-ui,sans-serif" font-size="12" fill="#e8edf3" text-anchor="middle">conductivity = f(defects,T)</text><line x1="290" y1="240" x2="290" y2="266" stroke="#6cb2ff"/><polygon points="285,258 295,258 290,266" fill="#6cb2ff"/><text x="16" y="356" font-family="system-ui,sans-serif" font-size="10" fill="#5c6b80">Carrier, not free ion.</text></svg>