<svg xmlns="http://www.w3.org/2000/svg" viewBox="0 0 662 224" width="662" height="224" role="img"><rect width="662" height="224" fill="#0f141b"/><text x="16" y="28" font-family="system-ui,sans-serif" font-size="16" font-weight="700" fill="#e8edf3">Be bulk reference (HCP, near ambient)</text><rect x="20" y="56" width="202" height="56" rx="8" fill="#161d27" stroke="#26313f"/><text x="30" y="80" font-family="system-ui,sans-serif" font-size="13" font-weight="700" fill="#6cb2ff">ρ = 1848 kg/m3</text><text x="30" y="98" font-family="system-ui,sans-serif" font-size="10" fill="#9aa7b8">light metal</text><rect x="230" y="56" width="202" height="56" rx="8" fill="#161d27" stroke="#26313f"/><text x="240" y="80" font-family="system-ui,sans-serif" font-size="13" font-weight="700" fill="#6cb2ff">E = 287 GPa</text><text x="240" y="98" font-family="system-ui,sans-serif" font-size="10" fill="#9aa7b8">anisotropic!</text><rect x="440" y="56" width="202" height="56" rx="8" fill="#161d27" stroke="#26313f"/><text x="450" y="80" font-family="system-ui,sans-serif" font-size="13" font-weight="700" fill="#6cb2ff">k ≈ 190 W/mK</text><text x="450" y="98" font-family="system-ui,sans-serif" font-size="10" fill="#9aa7b8">high for mass</text><rect x="20" y="120" width="202" height="56" rx="8" fill="#161d27" stroke="#26313f"/><text x="30" y="144" font-family="system-ui,sans-serif" font-size="13" font-weight="700" fill="#6cb2ff">ρe 3.8e-8 Ωm</text><text x="30" y="162" font-family="system-ui,sans-serif" font-size="10" fill="#9aa7b8">conductor</text><rect x="230" y="120" width="202" height="56" rx="8" fill="#161d27" stroke="#26313f"/><text x="240" y="144" font-family="system-ui,sans-serif" font-size="13" font-weight="700" fill="#6cb2ff">Tm ≈ 1560 K</text><text x="240" y="162" font-family="system-ui,sans-serif" font-size="10" fill="#9aa7b8">reference</text><rect x="440" y="120" width="202" height="56" rx="8" fill="#161d27" stroke="#26313f"/><text x="450" y="144" font-family="system-ui,sans-serif" font-size="13" font-weight="700" fill="#6cb2ff">Tb ≈ 2741 K</text><text x="450" y="162" font-family="system-ui,sans-serif" font-size="10" fill="#9aa7b8">reference</text><text x="16" y="214" font-family="system-ui,sans-serif" font-size="10" fill="#5c6b80">Direction + state required. SRC-000056.</text></svg>