<svg xmlns="http://www.w3.org/2000/svg" viewBox="0 0 540 436" width="540" height="436" role="img"><rect width="540" height="436" fill="#0f141b"/><text x="16" y="28" font-family="system-ui,sans-serif" font-size="16" font-weight="700" fill="#e8edf3">He evidence provenance</text><rect x="60" y="56" width="420" height="44" rx="8" fill="#161d27" stroke="#26313f"/><text x="270" y="83" font-family="system-ui,sans-serif" font-size="12" fill="#e8edf3" text-anchor="middle">NIST ASD → atomic/ionization</text><rect x="60" y="126" width="420" height="44" rx="8" fill="#161d27" stroke="#26313f"/><text x="270" y="153" font-family="system-ui,sans-serif" font-size="12" fill="#e8edf3" text-anchor="middle">NIST isotopes → masses</text><line x1="270" y1="100" x2="270" y2="126" stroke="#6cb2ff"/><polygon points="265,118 275,118 270,126" fill="#6cb2ff"/><rect x="60" y="196" width="420" height="44" rx="8" fill="#161d27" stroke="#26313f"/><text x="270" y="223" font-family="system-ui,sans-serif" font-size="12" fill="#e8edf3" text-anchor="middle">NUBASE2020 → unstable states</text><line x1="270" y1="170" x2="270" y2="196" stroke="#6cb2ff"/><polygon points="265,188 275,188 270,196" fill="#6cb2ff"/><rect x="60" y="266" width="420" height="44" rx="8" fill="#161d27" stroke="#26313f"/><text x="270" y="293" font-family="system-ui,sans-serif" font-size="12" fill="#e8edf3" text-anchor="middle">NIST TN1334 → 4He physics</text><line x1="270" y1="240" x2="270" y2="266" stroke="#6cb2ff"/><polygon points="265,258 275,258 270,266" fill="#6cb2ff"/><rect x="60" y="336" width="420" height="44" rx="8" fill="#161d27" stroke="#26313f"/><text x="270" y="363" font-family="system-ui,sans-serif" font-size="12" fill="#e8edf3" text-anchor="middle">history → liquefaction/superfluids</text><line x1="270" y1="310" x2="270" y2="336" stroke="#6cb2ff"/><polygon points="265,328 275,328 270,336" fill="#6cb2ff"/><text x="16" y="426" font-family="system-ui,sans-serif" font-size="10" fill="#5c6b80">Overlays never overwrite core.</text></svg>