<svg xmlns="http://www.w3.org/2000/svg" viewBox="0 0 832 224" width="832" height="224" role="img"><rect width="832" height="224" fill="#0f141b"/><text x="16" y="28" font-family="system-ui,sans-serif" font-size="16" font-weight="700" fill="#e8edf3">Hydrogen isotopes 1H–7H (NUCLEAR SCHEMATIC)</text><rect x="20" y="56" width="192" height="56" rx="8" fill="#161d27" stroke="#26313f"/><text x="30" y="80" font-family="system-ui,sans-serif" font-size="13" font-weight="700" fill="#6cb2ff">1H Protium</text><text x="30" y="98" font-family="system-ui,sans-serif" font-size="10" fill="#9aa7b8">1p 0n · STABLE</text><rect x="220" y="56" width="192" height="56" rx="8" fill="#161d27" stroke="#26313f"/><text x="230" y="80" font-family="system-ui,sans-serif" font-size="13" font-weight="700" fill="#6cb2ff">2H Deuterium</text><text x="230" y="98" font-family="system-ui,sans-serif" font-size="10" fill="#9aa7b8">1p 1n · STABLE</text><rect x="420" y="56" width="192" height="56" rx="8" fill="#161d27" stroke="#26313f"/><text x="430" y="80" font-family="system-ui,sans-serif" font-size="13" font-weight="700" fill="#6cb2ff">3H Tritium</text><text x="430" y="98" font-family="system-ui,sans-serif" font-size="10" fill="#9aa7b8">1p 2n · 12.32 y β−</text><rect x="620" y="56" width="192" height="56" rx="8" fill="#161d27" stroke="#26313f"/><text x="630" y="80" font-family="system-ui,sans-serif" font-size="13" font-weight="700" fill="#6cb2ff">4H Hydrogen-4</text><text x="630" y="98" font-family="system-ui,sans-serif" font-size="10" fill="#9aa7b8">1p 3n · ~139 ys</text><rect x="20" y="120" width="192" height="56" rx="8" fill="#161d27" stroke="#26313f"/><text x="30" y="144" font-family="system-ui,sans-serif" font-size="13" font-weight="700" fill="#6cb2ff">5H Hydrogen-5</text><text x="30" y="162" font-family="system-ui,sans-serif" font-size="10" fill="#9aa7b8">1p 4n · ~86 ys</text><rect x="220" y="120" width="192" height="56" rx="8" fill="#161d27" stroke="#26313f"/><text x="230" y="144" font-family="system-ui,sans-serif" font-size="13" font-weight="700" fill="#6cb2ff">6H Hydrogen-6</text><text x="230" y="162" font-family="system-ui,sans-serif" font-size="10" fill="#9aa7b8">1p 5n · ~294 ys eval.</text><rect x="420" y="120" width="192" height="56" rx="8" fill="#161d27" stroke="#26313f"/><text x="430" y="144" font-family="system-ui,sans-serif" font-size="13" font-weight="700" fill="#6cb2ff">7H Hydrogen-7</text><text x="430" y="162" font-family="system-ui,sans-serif" font-size="10" fill="#9aa7b8">1p 6n · highly uncertain</text><text x="16" y="214" font-family="system-ui,sans-serif" font-size="10" fill="#5c6b80">NUCLEAR SCHEMATIC — not literal nucleon positions. NUBASE2020 via SRC-H-004.</text></svg>